<svg xmlns="http://www.w3.org/2000/svg" xmlns:xlink="http://www.w3.org/1999/xlink" class="variation-svg fade-enter-done w-28 md:w-52" style="transform: scale(1);" viewBox="150.8 164.05 273.4 78.17"><image height="51.35735926134833" width="166" y="164.0529998474121" x="213.845" preserveAspectRatio="xMinYMin" href="logo-hut.png" style="position: absolute;"></image><g><svg data-layer-type="text" y="246.22500007629395" viewBox="0 0 0 0" x="287.4999969482422" height="0" width="0" style="position: absolute;"><g data-horizontal-grow="center" style="fill: rgb(34, 42, 55); font-size: 13px; font-weight: 600; font-style: normal; font-family: &quot;Open Sans&quot;; dominant-baseline: hanging; text-transform: uppercase; letter-spacing: 0.45em; fill-opacity: 1;"><path d="" transform="translate(0, 0)"></path></g></svg></g><g><svg data-layer-type="text" y="218.70499992370605" viewBox="2.880000114440918 11 273.3999938964844 23.520000457763672" x="150.80000274658204" height="23.520000457763672" width="273.3999938964844" style="position: absolute;"><g data-horizontal-grow="center" style="fill: rgb(34, 42, 55); font-size: 32px; font-weight: 700; font-style: normal; font-family: &quot;Open Sans&quot;; dominant-baseline: hanging; text-transform: uppercase; fill-opacity: 1;"><path d="M2.88 34.20L2.88 11.36L9.98 11.36Q14.55 11.36 16.89 12.64Q19.23 13.92 19.23 17.14L19.23 17.14Q19.23 18.44 18.82 19.48Q18.41 20.53 17.63 21.20Q16.84 21.88 15.72 22.08L15.72 22.08L15.72 22.23Q16.86 22.47 17.78 23.04Q18.70 23.61 19.26 24.70Q19.81 25.78 19.81 27.58L19.81 27.58Q19.81 29.66 18.80 31.14Q17.78 32.63 15.90 33.41Q14.02 34.20 11.42 34.20L11.42 34.20L2.88 34.20ZM7.72 15.33L7.72 20.41L10.53 20.41Q12.64 20.41 13.45 19.74Q14.27 19.08 14.27 17.78L14.27 17.78Q14.27 16.47 13.30 15.90Q12.34 15.33 10.27 15.33L10.27 15.33L7.72 15.33ZM10.72 24.25L7.72 24.25L7.72 30.20L10.88 30.20Q13.06 30.20 13.92 29.36Q14.78 28.52 14.78 27.09L14.78 27.09Q14.78 26.25 14.41 25.61Q14.03 24.97 13.15 24.61Q12.27 24.25 10.72 24.25L10.72 24.25ZM43.58 34.20L38.36 34.20L36.70 28.77L28.38 28.77L26.72 34.20L21.50 34.20L29.56 11.27L35.48 11.27L43.58 34.20ZM29.59 24.70L35.55 24.70L33.89 19.39Q33.73 18.86 33.48 18.02Q33.22 17.19 32.96 16.32Q32.70 15.45 32.55 14.81L32.55 14.81Q32.39 15.45 32.12 16.40Q31.84 17.34 31.59 18.19Q31.34 19.03 31.23 19.39L31.23 19.39L29.59 24.70ZM56.16 15.06L56.16 15.06Q54.77 15.06 53.70 15.60Q52.63 16.14 51.90 17.16Q51.17 18.17 50.80 19.61Q50.42 21.05 50.42 22.84L50.42 22.84Q50.42 25.27 51.02 26.98Q51.63 28.69 52.89 29.59Q54.16 30.48 56.16 30.48L56.16 30.48Q57.55 30.48 58.95 30.17Q60.34 29.86 61.98 29.28L61.98 29.28L61.98 33.34Q60.47 33.97 59 34.24Q57.53 34.52 55.70 34.52L55.70 34.52Q52.17 34.52 49.90 33.05Q47.63 31.59 46.53 28.96Q45.44 26.33 45.44 22.81L45.44 22.81Q45.44 20.22 46.14 18.06Q46.84 15.91 48.20 14.33Q49.56 12.75 51.56 11.89Q53.56 11.03 56.16 11.03L56.16 11.03Q57.86 11.03 59.57 11.46Q61.28 11.89 62.84 12.64L62.84 12.64L61.28 16.58Q60 15.97 58.70 15.52Q57.41 15.06 56.16 15.06ZM85.56 11.36L85.56 34.20L80.73 34.20L80.73 24.34L71.69 24.34L71.69 34.20L66.84 34.20L66.84 11.36L71.69 11.36L71.69 20.31L80.73 20.31L80.73 11.36L85.56 11.36ZM104.48 30.20L104.48 34.20L91.33 34.20L91.33 11.36L104.48 11.36L104.48 15.33L96.17 15.33L96.17 20.34L103.91 20.34L103.91 24.31L96.17 24.31L96.17 30.20L104.48 30.20ZM123.36 34.20L109.25 34.20L109.25 11.36L114.09 11.36L114.09 30.20L123.36 30.20L123.36 34.20ZM148.06 22.75L148.06 22.75Q148.06 25.39 147.41 27.55Q146.75 29.72 145.41 31.28Q144.08 32.84 142.03 33.68Q139.98 34.52 137.19 34.52L137.19 34.52Q134.39 34.52 132.34 33.68Q130.30 32.84 128.96 31.28Q127.63 29.72 126.97 27.55Q126.31 25.38 126.31 22.72L126.31 22.72Q126.31 19.17 127.48 16.54Q128.64 13.91 131.06 12.45Q133.48 11 137.22 11L137.22 11Q140.94 11 143.34 12.45Q145.73 13.91 146.90 16.55Q148.06 19.19 148.06 22.75ZM131.39 22.75L131.39 22.75Q131.39 25.14 131.99 26.87Q132.59 28.59 133.88 29.52Q135.16 30.45 137.19 30.45L137.19 30.45Q139.25 30.45 140.53 29.52Q141.81 28.59 142.40 26.87Q142.98 25.14 142.98 22.75L142.98 22.75Q142.98 19.16 141.64 17.09Q140.30 15.03 137.22 15.03L137.22 15.03Q135.17 15.03 133.88 15.96Q132.59 16.89 131.99 18.62Q131.39 20.34 131.39 22.75ZM152.80 11.36L159.45 11.36Q162.56 11.36 164.59 12.11Q166.61 12.86 167.59 14.38Q168.58 15.89 168.58 18.20L168.58 18.20Q168.58 19.77 167.98 20.94Q167.39 22.11 166.42 22.92Q165.45 23.73 164.33 24.25L164.33 24.25L171.05 34.20L165.67 34.20L160.22 25.44L157.64 25.44L157.64 34.20L152.80 34.20L152.80 11.36ZM159.11 15.33L159.11 15.33L157.64 15.33L157.64 21.50L159.20 21.50Q161.61 21.50 162.65 20.70Q163.69 19.89 163.69 18.33L163.69 18.33Q163.69 16.70 162.57 16.02Q161.45 15.33 159.11 15.33ZM187.41 27.86L187.41 27.86Q187.41 29.89 186.42 31.39Q185.44 32.89 183.55 33.70Q181.67 34.52 178.98 34.52L178.98 34.52Q177.80 34.52 176.66 34.36Q175.53 34.20 174.49 33.90Q173.45 33.59 172.52 33.14L172.52 33.14L172.52 28.64Q174.14 29.36 175.89 29.94Q177.64 30.52 179.36 30.52L179.36 30.52Q180.55 30.52 181.27 30.20Q182 29.89 182.33 29.34Q182.66 28.80 182.66 28.09L182.66 28.09Q182.66 27.23 182.08 26.63Q181.50 26.02 180.49 25.48Q179.48 24.95 178.22 24.34L178.22 24.34Q177.42 23.97 176.48 23.43Q175.55 22.89 174.70 22.11Q173.86 21.33 173.32 20.21Q172.78 19.09 172.78 17.53L172.78 17.53Q172.78 15.48 173.72 14.03Q174.66 12.58 176.40 11.80Q178.14 11.03 180.52 11.03L180.52 11.03Q182.30 11.03 183.91 11.45Q185.53 11.86 187.30 12.64L187.30 12.64L185.73 16.41Q184.16 15.77 182.91 15.41Q181.66 15.06 180.36 15.06L180.36 15.06Q179.45 15.06 178.81 15.35Q178.17 15.64 177.84 16.16Q177.52 16.69 177.52 17.38L177.52 17.38Q177.52 18.19 177.99 18.74Q178.47 19.30 179.43 19.81Q180.39 20.33 181.83 21.02L181.83 21.02Q183.58 21.84 184.82 22.74Q186.06 23.64 186.73 24.85Q187.41 26.06 187.41 27.86ZM209.56 15.06L209.56 15.06Q208.17 15.06 207.10 15.60Q206.03 16.14 205.30 17.16Q204.58 18.17 204.20 19.61Q203.83 21.05 203.83 22.84L203.83 22.84Q203.83 25.27 204.43 26.98Q205.03 28.69 206.30 29.59Q207.56 30.48 209.56 30.48L209.56 30.48Q210.95 30.48 212.35 30.17Q213.75 29.86 215.39 29.28L215.39 29.28L215.39 33.34Q213.88 33.97 212.41 34.24Q210.94 34.52 209.11 34.52L209.11 34.52Q205.58 34.52 203.30 33.05Q201.03 31.59 199.94 28.96Q198.84 26.33 198.84 22.81L198.84 22.81Q198.84 20.22 199.55 18.06Q200.25 15.91 201.61 14.33Q202.97 12.75 204.97 11.89Q206.97 11.03 209.56 11.03L209.56 11.03Q211.27 11.03 212.98 11.46Q214.69 11.89 216.25 12.64L216.25 12.64L214.69 16.58Q213.41 15.97 212.11 15.52Q210.81 15.06 209.56 15.06ZM239.45 34.20L234.23 34.20L232.58 28.77L224.25 28.77L222.59 34.20L217.38 34.20L225.44 11.27L231.36 11.27L239.45 34.20ZM225.47 24.70L231.42 24.70L229.77 19.39Q229.61 18.86 229.35 18.02Q229.09 17.19 228.84 16.32Q228.58 15.45 228.42 14.81L228.42 14.81Q228.27 15.45 227.99 16.40Q227.72 17.34 227.47 18.19Q227.22 19.03 227.11 19.39L227.11 19.39L225.47 24.70ZM255.36 11.36L260.25 11.36L252.48 34.20L247.20 34.20L239.45 11.36L244.34 11.36L248.64 24.95Q248.75 25.30 249 26.24Q249.25 27.19 249.51 28.24Q249.77 29.30 249.86 29.98L249.86 29.98Q249.95 29.30 250.20 28.25Q250.44 27.20 250.68 26.26Q250.92 25.31 251.03 24.95L251.03 24.95L255.36 11.36ZM276.28 30.20L276.28 34.20L263.13 34.20L263.13 11.36L276.28 11.36L276.28 15.33L267.97 15.33L267.97 20.34L275.70 20.34L275.70 24.31L267.97 24.31L267.97 30.20L276.28 30.20Z" transform="translate(0, 0)"></path></g></svg></g></svg>