<?xml version="1.0" encoding="UTF-8"?>
<!DOCTYPE svg PUBLIC "-//W3C//DTD SVG 1.1//EN" "http://www.w3.org/Graphics/SVG/1.1/DTD/svg11.dtd">
<svg xmlns="http://www.w3.org/2000/svg" version="1.1" width="187px" height="178px" style="shape-rendering:geometricPrecision; text-rendering:geometricPrecision; image-rendering:optimizeQuality; fill-rule:evenodd; clip-rule:evenodd" xmlns:xlink="http://www.w3.org/1999/xlink">
<g><path style="opacity:0.004" fill="#fdfcfe" d="M 26.5,-0.5 C 69.8333,-0.5 113.167,-0.5 156.5,-0.5C 156.5,-0.166667 156.5,0.166667 156.5,0.5C 112.147,0.192865 67.8138,0.526198 23.5,1.5C 24.5,0.833333 25.5,0.166667 26.5,-0.5 Z"/></g>
<g><path style="opacity:1" fill="#5f1aeb" d="M 156.5,0.5 C 160.461,2.48062 164.461,4.48062 168.5,6.5C 169.5,6.83333 170.167,7.5 170.5,8.5C 171.419,11.0892 173.086,13.0892 175.5,14.5C 175.992,16.8185 176.992,18.8185 178.5,20.5C 179.64,63.815 179.806,107.148 179,150.5C 178.467,153.929 177.633,157.262 176.5,160.5C 176.672,161.492 176.338,162.158 175.5,162.5C 174.094,162.973 173.427,163.973 173.5,165.5C 172.167,167.5 170.5,169.167 168.5,170.5C 166.973,170.427 165.973,171.094 165.5,172.5C 164.486,173.674 163.153,174.34 161.5,174.5C 159.447,174.402 157.78,175.069 156.5,176.5C 155.508,176.328 154.842,176.662 154.5,177.5C 112.5,177.5 70.5,177.5 28.5,177.5C 26.8333,176.833 25.1667,176.167 23.5,175.5C 22.4863,174.326 21.153,173.66 19.5,173.5C 18.5084,173.672 17.8417,173.338 17.5,172.5C 16.7377,170.738 15.4044,169.738 13.5,169.5C 11.8333,168.5 10.5,167.167 9.5,165.5C 9.57298,163.973 8.90632,162.973 7.5,162.5C 6.66175,162.158 6.32842,161.492 6.5,160.5C 6.20414,158.597 5.53747,156.93 4.5,155.5C 3.56552,154.432 3.23219,153.099 3.5,151.5C 3.33334,109.832 3.50001,68.1653 4,26.5C 4.8215,23.8832 5.3215,21.2165 5.5,18.5C 5.32842,17.5084 5.66175,16.8417 6.5,16.5C 7.90632,16.0269 8.57298,15.0269 8.5,13.5C 9.90632,13.0269 10.573,12.0269 10.5,10.5C 10.8333,9.5 11.5,8.83333 12.5,8.5C 14.7488,7.92022 16.4154,6.58689 17.5,4.5C 19.9674,4.24512 21.9674,3.24512 23.5,1.5C 67.8138,0.526198 112.147,0.192865 156.5,0.5 Z"/></g>
<g><path style="opacity:0.224" fill="#e6d8fc" d="M 156.5,0.5 C 161.367,0.933266 165.367,2.93327 168.5,6.5C 164.461,4.48062 160.461,2.48062 156.5,0.5 Z"/></g>
<g><path style="opacity:0.463" fill="#d2b9fa" d="M 23.5,1.5 C 21.9674,3.24512 19.9674,4.24512 17.5,4.5C 18.911,2.46095 20.911,1.46095 23.5,1.5 Z"/></g>
<g><path style="opacity:0.682" fill="#bc97f7" d="M 17.5,4.5 C 16.4154,6.58689 14.7488,7.92022 12.5,8.5C 13.5846,6.41311 15.2512,5.07978 17.5,4.5 Z"/></g>
<g><path style="opacity:0.373" fill="#d7c4fa" d="M 10.5,10.5 C 10.573,12.0269 9.90632,13.0269 8.5,13.5C 8.42702,11.9731 9.09368,10.9731 10.5,10.5 Z"/></g>
<g><path style="opacity:0.259" fill="#dbc6fb" d="M 170.5,8.5 C 172.914,9.91083 174.581,11.9108 175.5,14.5C 173.086,13.0892 171.419,11.0892 170.5,8.5 Z"/></g>
<g><path style="opacity:0.318" fill="#d6c0fa" d="M 8.5,13.5 C 8.57298,15.0269 7.90632,16.0269 6.5,16.5C 6.42702,14.9731 7.09368,13.9731 8.5,13.5 Z"/></g>
<g><path style="opacity:0.078" fill="#f4effd" d="M 175.5,14.5 C 177.539,15.911 178.539,17.911 178.5,20.5C 176.992,18.8185 175.992,16.8185 175.5,14.5 Z"/></g>
<g><path style="opacity:0.682" fill="#e1cefc" d="M 5.5,18.5 C 5.3215,21.2165 4.8215,23.8832 4,26.5C 3.50001,68.1653 3.33334,109.832 3.5,151.5C 2.33532,109.669 2.16865,67.6687 3,25.5C 3.39034,22.8958 4.22367,20.5625 5.5,18.5 Z"/></g>
<g><path style="opacity:0.008" fill="#fcfafe" d="M 178.5,20.5 C 179.268,21.2625 179.768,22.2625 180,23.5C 180.667,66.8333 180.667,110.167 180,153.5C 179.478,156.281 178.311,158.615 176.5,160.5C 177.633,157.262 178.467,153.929 179,150.5C 179.806,107.148 179.64,63.815 178.5,20.5 Z"/></g>
<g><path style="opacity:1" fill="#fcfbfe" d="M 104.5,48.5 C 108.192,47.9712 111.358,48.9712 114,51.5C 115.099,58.7526 115.932,66.0859 116.5,73.5C 120.39,76.2714 124.057,79.2714 127.5,82.5C 123.192,88.6414 118.692,94.6414 114,100.5C 102.333,91.1667 90.6667,81.8333 79,72.5C 72.8333,80 66.6667,87.5 60.5,95C 57.3578,94.9122 54.8578,93.4122 53,90.5C 53.3983,88.3687 54.3983,86.3687 56,84.5C 65.5,73 75,61.5 84.5,50C 85.5,49.3333 86.5,49.3333 87.5,50C 91.3333,53.1667 95.1667,56.3333 99,59.5C 98.7543,54.6572 100.588,50.9906 104.5,48.5 Z"/></g>
<g><path style="opacity:1" fill="#f8f4fe" d="M 72.5,96.5 C 80.6577,95.8229 84.1577,99.4895 83,107.5C 80.7742,111.861 77.2742,113.361 72.5,112C 68.1392,109.774 66.6392,106.274 68,101.5C 69.025,99.313 70.525,97.6464 72.5,96.5 Z"/></g>
<g><path style="opacity:1" fill="#fbf9fe" d="M 120.5,113.5 C 121.833,113.5 123.167,113.5 124.5,113.5C 124.5,115.167 124.5,116.833 124.5,118.5C 102.553,122.019 80.7193,126.019 59,130.5C 58.7266,128.899 58.2266,127.399 57.5,126C 78.6681,122 99.6681,117.833 120.5,113.5 Z"/></g>
<g><path style="opacity:1" fill="#fbf9fe" d="M 123.5,124.5 C 125.256,125.552 125.923,127.219 125.5,129.5C 104.221,133.056 83.054,137.056 62,141.5C 61.7266,139.899 61.2266,138.399 60.5,137C 81.6741,133.031 102.674,128.864 123.5,124.5 Z"/></g>
<g><path style="opacity:0.029" fill="#efe7fd" d="M 4.5,155.5 C 5.53747,156.93 6.20414,158.597 6.5,160.5C 4.78679,159.365 4.12012,157.698 4.5,155.5 Z"/></g>
<g><path style="opacity:0.039" fill="#f2ecfd" d="M 7.5,162.5 C 8.90632,162.973 9.57298,163.973 9.5,165.5C 8.09368,165.027 7.42702,164.027 7.5,162.5 Z"/></g>
<g><path style="opacity:0.043" fill="#f3edfd" d="M 175.5,162.5 C 175.573,164.027 174.906,165.027 173.5,165.5C 173.427,163.973 174.094,162.973 175.5,162.5 Z"/></g>
<g><path style="opacity:0.51" fill="#cfb5f9" d="M 13.5,169.5 C 15.4044,169.738 16.7377,170.738 17.5,172.5C 15.5956,172.262 14.2623,171.262 13.5,169.5 Z"/></g>
<g><path style="opacity:0.067" fill="#f1eafd" d="M 168.5,170.5 C 168.027,171.906 167.027,172.573 165.5,172.5C 165.973,171.094 166.973,170.427 168.5,170.5 Z"/></g>
<g><path style="opacity:0.045" fill="#efe7fd" d="M 19.5,173.5 C 21.153,173.66 22.4863,174.326 23.5,175.5C 21.6203,175.771 20.287,175.104 19.5,173.5 Z"/></g>
<g><path style="opacity:0.024" fill="#f0e9fd" d="M 161.5,174.5 C 160.22,175.931 158.553,176.598 156.5,176.5C 157.78,175.069 159.447,174.402 161.5,174.5 Z"/></g>
</svg>
