<?xml version="1.0" encoding="UTF-8"?>
<!DOCTYPE svg PUBLIC "-//W3C//DTD SVG 1.1//EN" "http://www.w3.org/Graphics/SVG/1.1/DTD/svg11.dtd">
<svg xmlns="http://www.w3.org/2000/svg" version="1.1" width="512px" height="512px" style="shape-rendering:geometricPrecision; text-rendering:geometricPrecision; image-rendering:optimizeQuality; fill-rule:evenodd; clip-rule:evenodd" xmlns:xlink="http://www.w3.org/1999/xlink">
<g><path style="opacity:0.985" fill="#c70a50" d="M 327.5,130.5 C 322.764,124.258 317.431,118.424 311.5,113C 292.683,95.6832 274.016,78.1832 255.5,60.5C 236.651,78.5165 217.651,96.3499 198.5,114C 192.902,119.091 187.902,124.591 183.5,130.5C 179.863,133.325 176.197,136.158 172.5,139C 158.275,140.441 153.108,134.274 157,120.5C 185.737,92.5516 214.571,64.7183 243.5,37C 251.5,29.6667 259.5,29.6667 267.5,37C 296.429,64.7183 325.263,92.5516 354,120.5C 357.892,134.274 352.725,140.441 338.5,139C 334.803,136.158 331.137,133.325 327.5,130.5 Z"/></g>
<g><path style="opacity:1" fill="#107fa8" d="M 327.5,130.5 C 327.5,132.5 327.5,134.5 327.5,136.5C 303.823,113.489 279.823,90.8225 255.5,68.5C 231.177,90.8225 207.177,113.489 183.5,136.5C 183.5,134.5 183.5,132.5 183.5,130.5C 187.902,124.591 192.902,119.091 198.5,114C 217.651,96.3499 236.651,78.5165 255.5,60.5C 274.016,78.1832 292.683,95.6832 311.5,113C 317.431,118.424 322.764,124.258 327.5,130.5 Z"/></g>
<g><path style="opacity:0.954" fill="#fab300" d="M 115.5,63.5 C 118.978,63.1842 122.312,63.6842 125.5,65C 129.333,68.8333 133.167,72.6667 137,76.5C 141.377,84.0761 139.377,89.0761 131,91.5C 128.679,91.0905 126.513,90.2572 124.5,89C 120.667,85.1667 116.833,81.3333 113,77.5C 110.425,72.034 111.258,67.3673 115.5,63.5 Z"/></g>
<g><path style="opacity:0.95" fill="#094f78" d="M 387.5,63.5 C 397.33,61.8292 401.163,65.8292 399,75.5C 394.458,81.7098 388.958,86.8765 382.5,91C 373.148,90.9696 369.981,86.4696 373,77.5C 377.729,72.6025 382.562,67.9359 387.5,63.5 Z"/></g>
<g><path style="opacity:1" fill="#00a0c7" d="M 327.5,136.5 C 327.667,156.169 327.5,175.836 327,195.5C 326.626,196.416 326.126,197.25 325.5,198C 302.252,199.157 278.919,199.657 255.5,199.5C 232.081,199.657 208.748,199.157 185.5,198C 184.874,197.25 184.374,196.416 184,195.5C 183.5,175.836 183.333,156.169 183.5,136.5C 207.177,113.489 231.177,90.8225 255.5,68.5C 279.823,90.8225 303.823,113.489 327.5,136.5 Z"/></g>
<g><path style="opacity:0.974" fill="#00a0c8" d="M 99.5,111.5 C 107.507,111.334 115.507,111.5 123.5,112C 125.333,112.5 126.5,113.667 127,115.5C 127.667,118.167 127.667,120.833 127,123.5C 126.5,125.333 125.333,126.5 123.5,127C 115.5,127.667 107.5,127.667 99.5,127C 96.484,125.471 95.1506,122.971 95.5,119.5C 95.2824,115.934 96.6157,113.268 99.5,111.5 Z"/></g>
<g><path style="opacity:0.974" fill="#00a0c8" d="M 387.5,111.5 C 395.507,111.334 403.507,111.5 411.5,112C 413.333,112.5 414.5,113.667 415,115.5C 415.667,118.167 415.667,120.833 415,123.5C 414.5,125.333 413.333,126.5 411.5,127C 403.5,127.667 395.5,127.667 387.5,127C 384.484,125.471 383.151,122.971 383.5,119.5C 383.282,115.934 384.616,113.268 387.5,111.5 Z"/></g>
<g><path style="opacity:1" fill="#edefef" d="M 282.5,132.5 C 272.035,142.465 261.702,152.631 251.5,163C 248.366,163.79 245.366,163.457 242.5,162C 237.63,157.298 232.963,152.465 228.5,147.5C 225.596,138.237 228.93,134.404 238.5,136C 241.965,138.463 245.131,141.296 248,144.5C 256.197,135.969 264.697,127.802 273.5,120C 282.438,119.781 285.438,123.948 282.5,132.5 Z"/></g>
<g><path style="opacity:1" fill="#1486ad" d="M 282.5,132.5 C 284.958,134.493 285.125,136.826 283,139.5C 273.194,150.64 262.694,161.14 251.5,171C 248.366,171.79 245.366,171.457 242.5,170C 238,165.5 233.5,161 229,156.5C 227.692,154.866 226.858,153.032 226.5,151C 226.387,149.301 227.053,148.134 228.5,147.5C 232.963,152.465 237.63,157.298 242.5,162C 245.366,163.457 248.366,163.79 251.5,163C 261.702,152.631 272.035,142.465 282.5,132.5 Z"/></g>
<g><path style="opacity:0.953" fill="#094f77" d="M 128.5,147.5 C 138.62,148.408 141.453,153.408 137,162.5C 132.801,167.034 128.301,171.201 123.5,175C 112.503,176.536 109.003,172.036 113,161.5C 117.788,156.202 122.955,151.535 128.5,147.5 Z"/></g>
<g><path style="opacity:0.95" fill="#fab300" d="M 377.5,147.5 C 380.794,147.259 383.794,148.092 386.5,150C 390.333,153.833 394.167,157.667 398,161.5C 401.997,172.036 398.497,176.536 387.5,175C 381.29,170.458 376.124,164.958 372,158.5C 371.176,153.482 373.009,149.815 377.5,147.5 Z"/></g>
<g><path style="opacity:0.999" fill="#efc79f" d="M 255.5,222.5 C 251.899,224.977 248.233,227.477 244.5,230C 230.667,243.833 216.833,257.667 203,271.5C 201.546,274.071 200.38,276.738 199.5,279.5C 199.5,282.167 199.5,284.833 199.5,287.5C 201.22,306.718 211.22,313.218 229.5,307C 240.035,296.298 250.702,285.798 261.5,275.5C 285.471,298.137 309.138,321.137 332.5,344.5C 333.833,346.5 335.5,348.167 337.5,349.5C 342.464,354.965 347.63,360.298 353,365.5C 354.993,367.818 356.159,370.484 356.5,373.5C 351.432,385.696 342.432,389.863 329.5,386C 306.528,364.028 283.861,341.695 261.5,319C 259.08,319.372 257.08,320.705 255.5,323C 283,350.5 310.5,378 338,405.5C 338.383,404.944 338.883,404.611 339.5,404.5C 343.735,410.242 348.568,415.575 354,420.5C 355.456,423.076 356.623,425.742 357.5,428.5C 355.468,430.851 353.635,433.517 352,436.5C 344.075,443.269 335.575,444.103 326.5,439C 295.333,407.833 264.167,376.667 233,345.5C 230.705,347.08 229.372,349.08 229,351.5C 258.395,380.728 287.562,410.062 316.5,439.5C 315.596,440.209 315.263,441.209 315.5,442.5C 309.574,454.642 300.24,458.475 287.5,454C 260.014,427.348 232.681,400.514 205.5,373.5C 203.684,374.815 202.017,376.315 200.5,378C 225.425,402.424 249.759,427.257 273.5,452.5C 273.5,452.833 273.5,453.167 273.5,453.5C 272.044,466.437 264.711,472.27 251.5,471C 248.833,469.667 246.167,468.333 243.5,467C 202.139,425.306 160.472,383.972 118.5,343C 89.5778,332.526 60.5778,322.36 31.5,312.5C 31.5,261.167 31.5,209.833 31.5,158.5C 86.9843,176.828 142.318,195.662 197.5,215C 210.167,215.333 222.833,215.667 235.5,216C 242.559,217.075 249.226,219.242 255.5,222.5 Z"/></g>
<g><path style="opacity:0.998" fill="#c5a782" d="M 479.5,318.5 C 451.424,326.692 423.424,335.192 395.5,344C 392.339,345.413 389.339,347.08 386.5,349C 376.965,358.702 367.298,368.202 357.5,377.5C 357.768,375.901 357.434,374.568 356.5,373.5C 356.159,370.484 354.993,367.818 353,365.5C 347.63,360.298 342.464,354.965 337.5,349.5C 346.447,340.198 357.447,335.532 370.5,335.5C 370.5,332.167 370.5,328.833 370.5,325.5C 355.129,326.519 342.463,332.852 332.5,344.5C 309.138,321.137 285.471,298.137 261.5,275.5C 260.5,274.167 259.5,272.833 258.5,271.5C 258.435,271.062 258.601,270.728 259,270.5C 281.642,290.054 305.476,291.554 330.5,275C 335.218,271.657 336.718,267.157 335,261.5C 315.394,278.16 293.894,280.993 270.5,270C 266.361,267.361 262.361,264.528 258.5,261.5C 249.348,270.152 240.348,278.986 231.5,288C 217.946,295.644 207.279,292.811 199.5,279.5C 200.38,276.738 201.546,274.071 203,271.5C 216.833,257.667 230.667,243.833 244.5,230C 248.233,227.477 251.899,224.977 255.5,222.5C 261.774,219.242 268.441,217.075 275.5,216C 288.167,215.667 300.833,215.333 313.5,215C 368.71,198.318 424.043,182.151 479.5,166.5C 479.5,217.167 479.5,267.833 479.5,318.5 Z"/></g>
<g><path style="opacity:1" fill="#b39678" d="M 258.5,271.5 C 250.035,279.464 241.702,287.631 233.5,296C 218.907,305.673 207.573,302.84 199.5,287.5C 199.5,284.833 199.5,282.167 199.5,279.5C 207.279,292.811 217.946,295.644 231.5,288C 240.348,278.986 249.348,270.152 258.5,261.5C 262.361,264.528 266.361,267.361 270.5,270C 293.894,280.993 315.394,278.16 335,261.5C 336.718,267.157 335.218,271.657 330.5,275C 305.476,291.554 281.642,290.054 259,270.5C 258.601,270.728 258.435,271.062 258.5,271.5 Z"/></g>
<g><path style="opacity:1" fill="#d1aa82" d="M 258.5,271.5 C 259.5,272.833 260.5,274.167 261.5,275.5C 250.702,285.798 240.035,296.298 229.5,307C 211.22,313.218 201.22,306.718 199.5,287.5C 207.573,302.84 218.907,305.673 233.5,296C 241.702,287.631 250.035,279.464 258.5,271.5 Z"/></g>
<g><path style="opacity:1" fill="#d2ab83" d="M 31.5,312.5 C 60.5778,322.36 89.5778,332.526 118.5,343C 160.472,383.972 202.139,425.306 243.5,467C 246.167,468.333 248.833,469.667 251.5,471C 264.711,472.27 272.044,466.437 273.5,453.5C 274.532,455.434 275.198,457.6 275.5,460C 274.75,463.163 274.084,466.33 273.5,469.5C 265.981,479.782 256.314,482.282 244.5,477C 238.965,471.297 233.298,465.797 227.5,460.5C 200.167,432.5 172.5,404.833 144.5,377.5C 135.395,368.896 126.395,360.063 117.5,351C 89.2422,340.803 60.9089,330.803 32.5,321C 31.5562,318.281 31.2229,315.448 31.5,312.5 Z"/></g>
<g><path style="opacity:0.999" fill="#b59878" d="M 479.5,318.5 C 479.777,321.448 479.444,324.281 478.5,327C 449.033,335.934 419.699,345.267 390.5,355C 378.362,364.971 367.029,375.804 356.5,387.5C 355.957,387.44 355.624,387.107 355.5,386.5C 356.933,383.667 357.6,380.667 357.5,377.5C 367.298,368.202 376.965,358.702 386.5,349C 389.339,347.08 392.339,345.413 395.5,344C 423.424,335.192 451.424,326.692 479.5,318.5 Z"/></g>
<g><path style="opacity:1" fill="#d2ab84" d="M 356.5,373.5 C 357.434,374.568 357.768,375.901 357.5,377.5C 357.6,380.667 356.933,383.667 355.5,386.5C 355.624,387.107 355.957,387.44 356.5,387.5C 351.167,393.5 345.5,399.167 339.5,404.5C 338.883,404.611 338.383,404.944 338,405.5C 310.5,378 283,350.5 255.5,323C 257.08,320.705 259.08,319.372 261.5,319C 283.861,341.695 306.528,364.028 329.5,386C 342.432,389.863 351.432,385.696 356.5,373.5 Z"/></g>
<g><path style="opacity:1" fill="#b39678" d="M 337.5,349.5 C 335.5,348.167 333.833,346.5 332.5,344.5C 342.463,332.852 355.129,326.519 370.5,325.5C 370.5,328.833 370.5,332.167 370.5,335.5C 357.447,335.532 346.447,340.198 337.5,349.5 Z"/></g>
<g><path style="opacity:1" fill="#d3ab83" d="M 357.5,428.5 C 357.207,447.296 347.874,454.796 329.5,451C 324.379,448.045 320.045,444.211 316.5,439.5C 287.562,410.062 258.395,380.728 229,351.5C 229.372,349.08 230.705,347.08 233,345.5C 264.167,376.667 295.333,407.833 326.5,439C 335.575,444.103 344.075,443.269 352,436.5C 353.635,433.517 355.468,430.851 357.5,428.5 Z"/></g>
<g><path style="opacity:1" fill="#d3ab83" d="M 315.5,442.5 C 317.377,456.67 311.043,464.67 296.5,466.5C 291.382,465.934 286.716,464.267 282.5,461.5C 280.275,457.765 277.442,454.432 274,451.5C 273.601,451.728 273.435,452.062 273.5,452.5C 249.759,427.257 225.425,402.424 200.5,378C 202.017,376.315 203.684,374.815 205.5,373.5C 232.681,400.514 260.014,427.348 287.5,454C 300.24,458.475 309.574,454.642 315.5,442.5 Z"/></g>
<g><path style="opacity:1" fill="#b49779" d="M 144.5,377.5 C 172.5,404.833 200.167,432.5 227.5,460.5C 217.872,468.55 208.372,468.217 199,459.5C 194.912,453.349 193.579,446.682 195,439.5C 191.088,444.083 186.588,447.917 181.5,451C 163.126,454.796 153.793,447.296 153.5,428.5C 155.576,431.102 157.576,433.936 159.5,437C 171.26,445.49 181.593,443.99 190.5,432.5C 183.5,424.833 176.167,417.5 168.5,410.5C 163.787,414.883 159.12,419.217 154.5,423.5C 138.086,427.958 128.419,421.791 125.5,405C 125.989,403.862 126.322,402.695 126.5,401.5C 132.413,413.282 141.747,417.115 154.5,413C 157.797,410.705 160.797,408.038 163.5,405C 155.965,397.298 148.298,389.798 140.5,382.5C 141.833,380.833 143.167,379.167 144.5,377.5 Z"/></g>
<g><path style="opacity:0.996" fill="#c5a783" d="M 140.5,382.5 C 148.298,389.798 155.965,397.298 163.5,405C 160.797,408.038 157.797,410.705 154.5,413C 141.747,417.115 132.413,413.282 126.5,401.5C 128.818,393.504 133.485,387.171 140.5,382.5 Z"/></g>
<g><path style="opacity:0.998" fill="#c5a782" d="M 153.5,428.5 C 154.067,426.97 154.733,425.47 155.5,424C 155.272,423.601 154.938,423.435 154.5,423.5C 159.12,419.217 163.787,414.883 168.5,410.5C 176.167,417.5 183.5,424.833 190.5,432.5C 181.593,443.99 171.26,445.49 159.5,437C 157.576,433.936 155.576,431.102 153.5,428.5 Z"/></g>
<g><path style="opacity:1" fill="#ac9277" d="M 282.5,461.5 C 279.5,464.167 276.5,466.833 273.5,469.5C 274.084,466.33 274.75,463.163 275.5,460C 275.198,457.6 274.532,455.434 273.5,453.5C 273.5,453.167 273.5,452.833 273.5,452.5C 273.435,452.062 273.601,451.728 274,451.5C 277.442,454.432 280.275,457.765 282.5,461.5 Z"/></g>
</svg>
