<?xml version="1.0" encoding="UTF-8"?>
<!DOCTYPE svg PUBLIC "-//W3C//DTD SVG 1.1//EN" "http://www.w3.org/Graphics/SVG/1.1/DTD/svg11.dtd">
<svg xmlns="http://www.w3.org/2000/svg" version="1.1" width="512px" height="512px" style="shape-rendering:geometricPrecision; text-rendering:geometricPrecision; image-rendering:optimizeQuality; fill-rule:evenodd; clip-rule:evenodd" xmlns:xlink="http://www.w3.org/1999/xlink">
<g><path style="opacity:0.994" fill="#2d78fc" d="M 263.5,61.5 C 258.167,58.5 252.833,55.5 247.5,52.5C 247.08,45.7163 247.58,39.0496 249,32.5C 253.052,30.0577 257.219,29.891 261.5,32C 262.126,32.7504 262.626,33.5838 263,34.5C 263.5,43.4938 263.666,52.4938 263.5,61.5 Z"/></g>
<g><path style="opacity:1" fill="#2f7ffa" d="M 247.5,52.5 C 252.833,55.5 258.167,58.5 263.5,61.5C 263.5,69.1667 263.5,76.8333 263.5,84.5C 258.463,80.9814 253.13,77.9814 247.5,75.5C 247.5,67.8333 247.5,60.1667 247.5,52.5 Z"/></g>
<g><path style="opacity:0.958" fill="#2b72fd" d="M 327.5,77.5 C 322.5,74.8333 317.5,72.1667 312.5,69.5C 315.778,63.1132 319.444,56.9466 323.5,51C 330.84,48.0033 335.507,50.3366 337.5,58C 334.56,64.7144 331.226,71.2144 327.5,77.5 Z"/></g>
<g><path style="opacity:0.964" fill="#338cf7" d="M 214.5,97.5 C 214.631,98.2389 214.464,98.9056 214,99.5C 205.355,94.0964 196.522,89.0964 187.5,84.5C 182.187,76.0418 177.52,67.2085 173.5,58C 175.493,50.3366 180.16,48.0033 187.5,51C 197.154,66.1459 206.154,81.6459 214.5,97.5 Z"/></g>
<g><path style="opacity:0.962" fill="#2d78fc" d="M 312.5,69.5 C 317.5,72.1667 322.5,74.8333 327.5,77.5C 324.653,83.2059 321.32,88.5393 317.5,93.5C 312.87,90.5136 308.203,87.5136 303.5,84.5C 306.263,79.2985 309.263,74.2985 312.5,69.5 Z"/></g>
<g><path style="opacity:0.944" fill="#3591f5" d="M 187.5,84.5 C 196.522,89.0964 205.355,94.0964 214,99.5C 214.464,98.9056 214.631,98.2389 214.5,97.5C 218.671,101.838 219.504,106.838 217,112.5C 213.491,115.671 209.657,116.171 205.5,114C 198.878,104.545 192.878,94.7114 187.5,84.5 Z"/></g>
<g><path style="opacity:0.966" fill="#3080fa" d="M 303.5,84.5 C 308.203,87.5136 312.87,90.5136 317.5,93.5C 314.406,100.853 310.406,107.686 305.5,114C 295.423,116.701 291.257,112.868 293,102.5C 296.764,96.6365 300.264,90.6365 303.5,84.5 Z"/></g>
<g><path style="opacity:0.985" fill="#3186f8" d="M 247.5,75.5 C 253.13,77.9814 258.463,80.9814 263.5,84.5C 263.897,89.9586 263.397,95.2919 262,100.5C 256.667,104.5 252,103.833 248,98.5C 247.5,90.8406 247.334,83.1739 247.5,75.5 Z"/></g>
<g><path style="opacity:0.967" fill="#39a1f1" d="M 125.5,103.5 C 129.463,103.089 133.13,103.922 136.5,106C 151.337,114.919 166.337,123.586 181.5,132C 185.788,135.771 186.621,140.271 184,145.5C 180.491,148.671 176.657,149.171 172.5,147C 155.833,137.333 139.167,127.667 122.5,118C 119.209,112.169 120.209,107.336 125.5,103.5 Z"/></g>
<g><path style="opacity:0.966" fill="#2d78fc" d="M 373.5,126.5 C 369.653,123.196 365.32,120.363 360.5,118C 359.748,117.329 359.414,116.496 359.5,115.5C 365.437,111.19 371.77,107.357 378.5,104C 389.053,102.926 392.553,107.426 389,117.5C 383.888,120.638 378.721,123.638 373.5,126.5 Z"/></g>
<g><path style="opacity:0.968" fill="#2f7ffa" d="M 359.5,115.5 C 359.414,116.496 359.748,117.329 360.5,118C 365.32,120.363 369.653,123.196 373.5,126.5C 367.83,130.337 361.83,133.67 355.5,136.5C 350.243,134.538 345.243,132.038 340.5,129C 339.402,128.23 339.402,127.397 340.5,126.5C 346.334,122.079 352.668,118.412 359.5,115.5 Z"/></g>
<g><path style="opacity:0.964" fill="#3286f8" d="M 340.5,126.5 C 339.402,127.397 339.402,128.23 340.5,129C 345.243,132.038 350.243,134.538 355.5,136.5C 348.8,141.519 341.467,145.519 333.5,148.5C 326.388,146.951 323.888,142.618 326,135.5C 330.302,131.601 335.136,128.601 340.5,126.5 Z"/></g>
<g><path style="opacity:0.981" fill="#3798f4" d="M 335.5,189.5 C 345.439,196.144 355.772,202.311 366.5,208C 367.381,208.708 368.047,209.542 368.5,210.5C 345.008,211.377 323.341,205.544 303.5,193C 294.007,186.087 284.341,179.42 274.5,173C 268.295,170.564 261.962,170.064 255.5,171.5C 256.598,170.603 256.598,169.77 255.5,169C 250.097,166.308 245.097,163.142 240.5,159.5C 255.361,151.683 270.361,151.516 285.5,159C 294.01,164.755 302.343,170.755 310.5,177C 318.646,181.74 326.98,185.907 335.5,189.5 Z"/></g>
<g><path style="opacity:0.966" fill="#41baeb" d="M 125.5,179.5 C 135.621,187.06 146.621,192.726 158.5,196.5C 143.5,196.5 128.5,196.5 113.5,196.5C 112.627,201.531 111.627,206.531 110.5,211.5C 109.883,211.611 109.383,211.944 109,212.5C 105.41,209.954 101.577,207.787 97.5,206C 96.1772,205.184 95.5106,204.017 95.5,202.5C 96.1751,196.623 97.1751,190.789 98.5,185C 98.1667,184.167 97.8333,183.333 97.5,182.5C 83.205,179.374 68.8717,176.374 54.5,173.5C 52.5323,174.1 51.5323,175.433 51.5,177.5C 50.8826,177.611 50.3826,177.944 50,178.5C 46.41,175.954 42.5766,173.787 38.5,172C 37.1772,171.184 36.5106,170.017 36.5,168.5C 37.9173,162.581 41.584,158.748 47.5,157C 51.1667,156.333 54.8333,156.333 58.5,157C 73.5,160 88.5,163 103.5,166C 109.728,168.061 113.728,172.228 115.5,178.5C 118.768,179.487 122.102,179.82 125.5,179.5 Z"/></g>
<g><path style="opacity:0.961" fill="#2d7afb" d="M 478.5,187.5 C 473.056,182.268 466.722,178.268 459.5,175.5C 458.778,174.449 457.778,173.782 456.5,173.5C 449.332,169.417 442.332,165.084 435.5,160.5C 444.658,157.834 453.991,156.668 463.5,157C 469.333,158.833 473.167,162.667 475,168.5C 476.362,174.81 477.529,181.143 478.5,187.5 Z"/></g>
<g><path style="opacity:0.969" fill="#2f7ffa" d="M 435.5,160.5 C 442.332,165.084 449.332,169.417 456.5,173.5C 446.223,175.755 435.89,177.755 425.5,179.5C 425.586,178.504 425.252,177.671 424.5,177C 418.273,173.726 412.273,170.226 406.5,166.5C 416.086,164.249 425.753,162.249 435.5,160.5 Z"/></g>
<g><path style="opacity:0.97" fill="#3186f8" d="M 406.5,166.5 C 412.273,170.226 418.273,173.726 424.5,177C 425.252,177.671 425.586,178.504 425.5,179.5C 421.529,180.496 417.529,181.496 413.5,182.5C 412.808,185.77 412.808,189.103 413.5,192.5C 413.565,192.938 413.399,193.272 413,193.5C 407.221,190.028 401.387,186.695 395.5,183.5C 394.916,174.984 398.583,169.318 406.5,166.5 Z"/></g>
<g><path style="opacity:0.938" fill="#3aa4f1" d="M 240.5,159.5 C 245.097,163.142 250.097,166.308 255.5,169C 256.598,169.77 256.598,170.603 255.5,171.5C 252.363,172.713 249.363,174.213 246.5,176C 239.273,182.071 231.94,187.904 224.5,193.5C 224.631,192.624 224.298,191.957 223.5,191.5C 217.336,188.252 211.336,184.752 205.5,181C 202.635,180.817 199.969,180.317 197.5,179.5C 203.509,179.666 209.509,179.499 215.5,179C 223.423,171.903 231.756,165.403 240.5,159.5 Z"/></g>
<g><path style="opacity:0.966" fill="#2f7ffa" d="M 459.5,175.5 C 466.722,178.268 473.056,182.268 478.5,187.5C 480.417,195.419 482.084,203.419 483.5,211.5C 477.33,207.581 470.997,203.914 464.5,200.5C 462.215,192.411 460.549,184.077 459.5,175.5 Z"/></g>
<g><path style="opacity:0.978" fill="#45c4e8" d="M 36.5,168.5 C 36.5106,170.017 37.1772,171.184 38.5,172C 42.5766,173.787 46.41,175.954 50,178.5C 50.3826,177.944 50.8826,177.611 51.5,177.5C 50.1667,184.5 48.8333,191.5 47.5,198.5C 42.8607,195.845 38.194,193.179 33.5,190.5C 32.7025,190.043 32.3691,189.376 32.5,188.5C 33.2154,181.589 34.5487,174.923 36.5,168.5 Z"/></g>
<g><path style="opacity:0.935" fill="#3fb3ec" d="M 125.5,179.5 C 137.5,179.5 149.5,179.5 161.5,179.5C 159.708,180.309 157.708,180.809 155.5,181C 164.395,185.941 173.062,191.108 181.5,196.5C 173.833,196.5 166.167,196.5 158.5,196.5C 146.621,192.726 135.621,187.06 125.5,179.5 Z"/></g>
<g><path style="opacity:0.97" fill="#3dacee" d="M 161.5,179.5 C 173.5,179.5 185.5,179.5 197.5,179.5C 199.969,180.317 202.635,180.817 205.5,181C 211.336,184.752 217.336,188.252 223.5,191.5C 224.298,191.957 224.631,192.624 224.5,193.5C 218.778,199.555 212.444,204.889 205.5,209.5C 200.167,206.833 194.833,204.167 189.5,201.5C 190.716,199.549 192.382,198.049 194.5,197C 190.179,196.501 185.846,196.334 181.5,196.5C 173.062,191.108 164.395,185.941 155.5,181C 157.708,180.809 159.708,180.309 161.5,179.5 Z"/></g>
<g><path style="opacity:0.973" fill="#338cf6" d="M 395.5,183.5 C 401.387,186.695 407.221,190.028 413,193.5C 413.399,193.272 413.565,192.938 413.5,192.5C 415.785,200.589 417.451,208.923 418.5,217.5C 412.571,213.369 406.238,210.036 399.5,207.5C 399.672,206.508 399.338,205.842 398.5,205.5C 390.671,201.42 383.004,197.087 375.5,192.5C 382.301,191.799 388.967,190.466 395.5,188.5C 395.5,186.833 395.5,185.167 395.5,183.5 Z"/></g>
<g><path style="opacity:0.949" fill="#3592f5" d="M 335.5,189.5 C 348.652,193.39 361.985,194.39 375.5,192.5C 383.004,197.087 390.671,201.42 398.5,205.5C 388.675,208.198 378.675,209.865 368.5,210.5C 368.047,209.542 367.381,208.708 366.5,208C 355.772,202.311 345.439,196.144 335.5,189.5 Z"/></g>
<g><path style="opacity:0.963" fill="#3592f5" d="M 399.5,207.5 C 406.238,210.036 412.571,213.369 418.5,217.5C 420.529,224.968 422.196,232.635 423.5,240.5C 417.167,237.167 410.833,233.833 404.5,230.5C 402.71,222.883 401.043,215.216 399.5,207.5 Z"/></g>
<g><path style="opacity:0.962" fill="#48cfe5" d="M 32.5,188.5 C 32.3691,189.376 32.7025,190.043 33.5,190.5C 38.194,193.179 42.8607,195.845 47.5,198.5C 44.9617,211.858 42.2951,225.191 39.5,238.5C 34.1667,235.5 28.8333,232.5 23.5,229.5C 26.3883,215.717 29.3883,202.05 32.5,188.5 Z"/></g>
<g><path style="opacity:0.967" fill="#40b7ec" d="M 189.5,201.5 C 194.833,204.167 200.167,206.833 205.5,209.5C 196.474,217.529 187.474,225.529 178.5,233.5C 174.966,229.047 170.299,226.047 164.5,224.5C 166.915,220.578 169.915,217.078 173.5,214C 178.995,210 184.329,205.834 189.5,201.5 Z"/></g>
<g><path style="opacity:0.969" fill="#3287f8" d="M 464.5,200.5 C 470.997,203.914 477.33,207.581 483.5,211.5C 485.218,218.756 486.551,226.09 487.5,233.5C 487.631,234.376 487.298,235.043 486.5,235.5C 480.938,232.22 475.271,229.22 469.5,226.5C 467.087,218.099 465.421,209.432 464.5,200.5 Z"/></g>
<g><path style="opacity:0.973" fill="#46c9e7" d="M 95.5,202.5 C 95.5106,204.017 96.1772,205.184 97.5,206C 101.577,207.787 105.41,209.954 109,212.5C 109.383,211.944 109.883,211.611 110.5,211.5C 107.833,225.167 105.167,238.833 102.5,252.5C 101.883,252.611 101.383,252.944 101,253.5C 96.3534,250.428 91.5201,247.762 86.5,245.5C 89.1383,230.97 92.1383,216.637 95.5,202.5 Z"/></g>
<g><path style="opacity:0.97" fill="#43bee9" d="M 164.5,224.5 C 170.299,226.047 174.966,229.047 178.5,233.5C 177.738,235.956 177.071,238.456 176.5,241C 177.362,244.811 178.029,248.644 178.5,252.5C 172.861,249.345 167.194,246.179 161.5,243C 160.891,241.052 160.224,239.218 159.5,237.5C 160.338,232.828 162.004,228.495 164.5,224.5 Z"/></g>
<g><path style="opacity:0.961" fill="#338cf7" d="M 469.5,226.5 C 475.271,229.22 480.938,232.22 486.5,235.5C 487.298,235.043 487.631,234.376 487.5,233.5C 489.785,241.589 491.451,249.923 492.5,258.5C 491.279,259.465 489.946,259.298 488.5,258C 484.084,255.042 479.584,252.208 475,249.5C 474.536,250.094 474.369,250.761 474.5,251.5C 472.215,243.411 470.549,235.077 469.5,226.5 Z"/></g>
<g><path style="opacity:0.962" fill="#3798f3" d="M 404.5,230.5 C 410.833,233.833 417.167,237.167 423.5,240.5C 425.376,249.883 427.376,259.216 429.5,268.5C 422.872,266.101 416.705,262.768 411,258.5C 410.601,258.728 410.435,259.062 410.5,259.5C 408.01,250.056 406.01,240.389 404.5,230.5 Z"/></g>
<g><path style="opacity:0.977" fill="#40b3ec" d="M 334.5,300.5 C 316.797,290.669 299.464,281.002 282.5,271.5C 272.121,262.06 260.287,255.06 247,250.5C 245.504,257.165 244.338,263.832 243.5,270.5C 243.631,269.624 243.298,268.957 242.5,268.5C 237.307,265.74 232.307,262.74 227.5,259.5C 227.283,237.893 237.616,230.059 258.5,236C 269.462,240.478 279.462,246.478 288.5,254C 304.035,269.368 319.368,284.868 334.5,300.5 Z"/></g>
<g><path style="opacity:0.956" fill="#4cdce2" d="M 23.5,229.5 C 28.8333,232.5 34.1667,235.5 39.5,238.5C 37.0383,250.808 34.705,263.142 32.5,275.5C 27.1667,272.833 21.8333,270.167 16.5,267.5C 18.8333,254.833 21.1667,242.167 23.5,229.5 Z"/></g>
<g><path style="opacity:0.967" fill="#45c5e8" d="M 159.5,237.5 C 160.224,239.218 160.891,241.052 161.5,243C 167.194,246.179 172.861,249.345 178.5,252.5C 180.785,259.913 182.451,267.58 183.5,275.5C 183.103,276.525 182.437,276.692 181.5,276C 176.333,272.833 171.167,269.667 166,266.5C 165.617,267.056 165.117,267.389 164.5,267.5C 162.059,257.628 160.392,247.628 159.5,237.5 Z"/></g>
<g><path style="opacity:0.958" fill="#3693f5" d="M 492.5,258.5 C 494.785,266.589 496.451,274.923 497.5,283.5C 491.613,280.305 485.779,276.972 480,273.5C 479.722,274.416 479.222,275.082 478.5,275.5C 477.038,267.521 475.704,259.521 474.5,251.5C 474.369,250.761 474.536,250.094 475,249.5C 479.584,252.208 484.084,255.042 488.5,258C 489.946,259.298 491.279,259.465 492.5,258.5 Z"/></g>
<g><path style="opacity:0.969" fill="#399ff2" d="M 429.5,268.5 C 430.833,276.167 432.167,283.833 433.5,291.5C 427.167,288.167 420.833,284.833 414.5,281.5C 412.787,274.267 411.454,266.934 410.5,259.5C 410.435,259.062 410.601,258.728 411,258.5C 416.705,262.768 422.872,266.101 429.5,268.5 Z"/></g>
<g><path style="opacity:0.961" fill="#46cbe6" d="M 183.5,275.5 C 186.119,284.585 188.119,293.918 189.5,303.5C 183.036,300.434 176.702,297.101 170.5,293.5C 168.494,284.812 166.494,276.146 164.5,267.5C 165.117,267.389 165.617,267.056 166,266.5C 171.167,269.667 176.333,272.833 181.5,276C 182.437,276.692 183.103,276.525 183.5,275.5 Z"/></g>
<g><path style="opacity:0.977" fill="#49d5e4" d="M 86.5,245.5 C 91.5201,247.762 96.3534,250.428 101,253.5C 101.383,252.944 101.883,252.611 102.5,252.5C 100.034,265.325 97.3674,277.992 94.5,290.5C 89.3682,288.1 84.3682,285.434 79.5,282.5C 81.449,270.088 83.7824,257.755 86.5,245.5 Z"/></g>
<g><path style="opacity:0.964" fill="#41b8eb" d="M 334.5,300.5 C 350.864,315.864 366.531,331.864 381.5,348.5C 364.167,338.833 346.833,329.167 329.5,319.5C 313.861,303.527 298.194,287.527 282.5,271.5C 299.464,281.002 316.797,290.669 334.5,300.5 Z"/></g>
<g><path style="opacity:0.965" fill="#3798f4" d="M 497.5,283.5 C 499.861,293.304 501.861,303.304 503.5,313.5C 497.219,308.685 490.553,304.352 483.5,300.5C 482.212,292.061 480.546,283.728 478.5,275.5C 479.222,275.082 479.722,274.416 480,273.5C 485.779,276.972 491.613,280.305 497.5,283.5 Z"/></g>
<g><path style="opacity:0.952" fill="#3ba6f0" d="M 414.5,281.5 C 420.833,284.833 427.167,288.167 433.5,291.5C 435.417,299.419 437.084,307.419 438.5,315.5C 432.298,311.899 425.964,308.566 419.5,305.5C 417.344,297.723 415.677,289.723 414.5,281.5 Z"/></g>
<g><path style="opacity:0.976" fill="#44c2e9" d="M 227.5,259.5 C 232.307,262.74 237.307,265.74 242.5,268.5C 243.298,268.957 243.631,269.624 243.5,270.5C 243.124,282.718 240.457,294.385 235.5,305.5C 229.913,303.705 224.579,301.372 219.5,298.5C 224.72,286.07 227.386,273.07 227.5,259.5 Z"/></g>
<g><path style="opacity:0.97" fill="#50e8df" d="M 16.5,267.5 C 21.8333,270.167 27.1667,272.833 32.5,275.5C 29.6117,289.283 26.6117,302.95 23.5,316.5C 18.7015,313.263 13.7015,310.263 8.5,307.5C 10.9555,294.094 13.6222,280.761 16.5,267.5 Z"/></g>
<g><path style="opacity:0.967" fill="#48d0e5" d="M 170.5,293.5 C 176.702,297.101 183.036,300.434 189.5,303.5C 190.906,308.812 192.573,314.145 194.5,319.5C 205.473,315.531 213.806,308.531 219.5,298.5C 224.579,301.372 229.913,303.705 235.5,305.5C 228.269,318.729 217.602,328.063 203.5,333.5C 195.062,328.108 186.395,322.941 177.5,318C 176.915,316.698 176.249,315.531 175.5,314.5C 173.47,307.703 171.803,300.703 170.5,293.5 Z"/></g>
<g><path style="opacity:0.968" fill="#399ff2" d="M 483.5,300.5 C 490.553,304.352 497.219,308.685 503.5,313.5C 505.341,320.374 506.674,327.374 507.5,334.5C 501.298,330.899 494.964,327.566 488.5,324.5C 487.084,316.419 485.417,308.419 483.5,300.5 Z"/></g>
<g><path style="opacity:0.967" fill="#3dabef" d="M 419.5,305.5 C 425.964,308.566 432.298,311.899 438.5,315.5C 440.218,322.756 441.551,330.09 442.5,337.5C 442.44,338.043 442.107,338.376 441.5,338.5C 435.721,334.709 429.721,331.376 423.5,328.5C 421.909,320.879 420.576,313.212 419.5,305.5 Z"/></g>
<g><path style="opacity:0.978" fill="#4ee2e1" d="M 79.5,282.5 C 84.3682,285.434 89.3682,288.1 94.5,290.5C 92.341,304.294 89.6744,317.961 86.5,331.5C 81.2985,328.737 76.2985,325.737 71.5,322.5C 73.5487,308.923 76.2154,295.59 79.5,282.5 Z"/></g>
<g><path style="opacity:0.968" fill="#42bee9" d="M 329.5,319.5 C 346.833,329.167 364.167,338.833 381.5,348.5C 387.631,354.13 393.631,359.964 399.5,366C 400.167,366.667 400.833,366.667 401.5,366C 402.705,364.624 404.038,363.458 405.5,362.5C 409.687,365.172 414.02,367.672 418.5,370C 418.884,370.951 419.217,371.784 419.5,372.5C 416.098,375.895 413.098,379.562 410.5,383.5C 410.649,384.552 410.483,385.552 410,386.5C 399.527,380.35 389.027,374.35 378.5,368.5C 361.833,352.5 345.5,336.167 329.5,319.5 Z"/></g>
<g><path style="opacity:0.949" fill="#50ebde" d="M 71.5,322.5 C 76.2985,325.737 81.2985,328.737 86.5,331.5C 85.6631,335.834 85.1631,340.168 85,344.5C 90.0365,349.369 94.8698,354.369 99.5,359.5C 88.5945,353.928 77.9278,347.928 67.5,341.5C 68.3435,334.943 69.6768,328.61 71.5,322.5 Z"/></g>
<g><path style="opacity:0.967" fill="#3ba5f0" d="M 488.5,324.5 C 494.964,327.566 501.298,330.899 507.5,334.5C 509.924,341.507 510.924,348.84 510.5,356.5C 504.807,353.786 499.14,351.119 493.5,348.5C 491.833,340.5 490.167,332.5 488.5,324.5 Z"/></g>
<g><path style="opacity:0.922" fill="#4ad6e3" d="M 175.5,314.5 C 176.249,315.531 176.915,316.698 177.5,318C 186.395,322.941 195.062,328.108 203.5,333.5C 196.739,338.14 189.405,339.306 181.5,337C 180.107,335.829 179.273,334.329 179,332.5C 177.509,326.547 176.343,320.547 175.5,314.5 Z"/></g>
<g><path style="opacity:0.98" fill="#47cbe7" d="M 367.5,406.5 C 351.392,397.61 335.392,388.443 319.5,379C 317.975,377.991 316.308,377.491 314.5,377.5C 300.506,364.339 287.006,350.673 274,336.5C 272.964,325.868 277.464,322.368 287.5,326C 314.368,352.701 341.035,379.535 367.5,406.5 Z"/></g>
<g><path style="opacity:0.982" fill="#3fb2ed" d="M 423.5,328.5 C 429.721,331.376 435.721,334.709 441.5,338.5C 442.107,338.376 442.44,338.043 442.5,337.5C 444.368,344.667 446.035,352.001 447.5,359.5C 448.333,359.833 449.167,360.167 450,360.5C 457.455,358.842 464.955,357.509 472.5,356.5C 479.86,360.512 487.194,364.512 494.5,368.5C 483.697,371.195 472.697,373.529 461.5,375.5C 449.236,366.797 436.236,358.964 422.5,352C 420.937,351.241 419.937,350.074 419.5,348.5C 421.628,345.87 423.961,343.37 426.5,341C 425.312,336.895 424.312,332.729 423.5,328.5 Z"/></g>
<g><path style="opacity:0.968" fill="#52f0dc" d="M 67.5,341.5 C 77.9278,347.928 88.5945,353.928 99.5,359.5C 116.167,375.5 132.5,391.833 148.5,408.5C 131.167,398.833 113.833,389.167 96.5,379.5C 91.202,374.703 86.0354,369.703 81,364.5C 79.9054,365.693 79.072,367.027 78.5,368.5C 73.6318,365.566 68.6318,362.9 63.5,360.5C 64.7288,354.121 66.0621,347.788 67.5,341.5 Z"/></g>
<g><path style="opacity:0.963" fill="#55fbd9" d="M 1.5,344.5 C 20.0327,354.929 38.366,365.596 56.5,376.5C 39.9055,374.082 23.5722,370.582 7.5,366C 0.711066,360.094 -1.28893,352.928 1.5,344.5 Z"/></g>
<g><path style="opacity:0.969" fill="#3dabee" d="M 493.5,348.5 C 499.14,351.119 504.807,353.786 510.5,356.5C 507.714,363.959 502.38,367.959 494.5,368.5C 487.194,364.512 479.86,360.512 472.5,356.5C 478.967,354.703 485.633,353.203 492.5,352C 493.337,350.989 493.67,349.822 493.5,348.5 Z"/></g>
<g><path style="opacity:0.97" fill="#41b7eb" d="M 419.5,348.5 C 419.937,350.074 420.937,351.241 422.5,352C 436.236,358.964 449.236,366.797 461.5,375.5C 454.204,377.775 446.871,377.942 439.5,376C 434.503,372.857 431.336,368.357 430,362.5C 426.631,366.037 423.131,369.371 419.5,372.5C 419.217,371.784 418.884,370.951 418.5,370C 414.02,367.672 409.687,365.172 405.5,362.5C 409.833,357.5 414.5,352.833 419.5,348.5 Z"/></g>
<g><path style="opacity:0.967" fill="#54f6db" d="M 8.5,307.5 C 13.7015,310.263 18.7015,313.263 23.5,316.5C 21.3334,328.157 19.5001,339.824 18,351.5C 33.0289,355.072 48.1956,358.072 63.5,360.5C 68.6318,362.9 73.6318,365.566 78.5,368.5C 73.2759,376.908 65.9426,379.575 56.5,376.5C 38.366,365.596 20.0327,354.929 1.5,344.5C 3.44904,332.088 5.78238,319.755 8.5,307.5 Z"/></g>
<g><path style="opacity:0.975" fill="#4cdbe2" d="M 357.5,423.5 C 358.117,423.389 358.617,423.056 359,422.5C 364.386,426.059 369.886,429.392 375.5,432.5C 372.885,446.104 365.218,455.437 352.5,460.5C 331.139,448.488 309.806,436.488 288.5,424.5C 270.201,406.702 252.035,388.702 234,370.5C 230.657,359.513 234.491,355.346 245.5,358C 273.861,386.695 302.528,415.028 331.5,443C 346.126,448.686 355.126,443.853 358.5,428.5C 358.272,426.793 357.938,425.126 357.5,423.5 Z"/></g>
<g><path style="opacity:0.974" fill="#4ad2e6" d="M 314.5,377.5 C 316.308,377.491 317.975,377.991 319.5,379C 335.392,388.443 351.392,397.61 367.5,406.5C 369.153,406.66 370.486,407.326 371.5,408.5C 378.833,413.167 386.167,417.833 393.5,422.5C 387.759,424.847 381.759,426.18 375.5,426.5C 375.5,428.5 375.5,430.5 375.5,432.5C 369.886,429.392 364.386,426.059 359,422.5C 358.617,423.056 358.117,423.389 357.5,423.5C 356.68,421.86 355.847,420.193 355,418.5C 341.298,404.965 327.798,391.299 314.5,377.5 Z"/></g>
<g><path style="opacity:0.959" fill="#54f6db" d="M 96.5,379.5 C 113.833,389.167 131.167,398.833 148.5,408.5C 164.833,424.167 180.833,440.167 196.5,456.5C 179.167,446.833 161.833,437.167 144.5,427.5C 128.167,411.833 112.167,395.833 96.5,379.5 Z"/></g>
<g><path style="opacity:0.965" fill="#45c5e8" d="M 378.5,368.5 C 389.027,374.35 399.527,380.35 410,386.5C 410.483,385.552 410.649,384.552 410.5,383.5C 412.217,391.598 411.551,399.598 408.5,407.5C 403.98,403.991 398.98,401.325 393.5,399.5C 394.54,395.22 394.706,390.887 394,386.5C 388.624,380.628 383.457,374.628 378.5,368.5 Z"/></g>
<g><path style="opacity:0.98" fill="#51eadf" d="M 274.5,459.5 C 274.103,460.525 273.437,460.692 272.5,460C 256.663,450.58 240.663,441.414 224.5,432.5C 223.893,432.624 223.56,432.957 223.5,433.5C 212.506,423.339 202.006,412.672 192,401.5C 190.257,391.132 194.423,387.299 204.5,390C 227.701,413.368 251.035,436.535 274.5,459.5 Z"/></g>
<g><path style="opacity:0.965" fill="#46cbe6" d="M 393.5,399.5 C 398.98,401.325 403.98,403.991 408.5,407.5C 405.167,414.167 400.167,419.167 393.5,422.5C 386.167,417.833 378.833,413.167 371.5,408.5C 380.889,410.471 388.222,407.471 393.5,399.5 Z"/></g>
<g><path style="opacity:0.969" fill="#55fada" d="M 144.5,427.5 C 161.833,437.167 179.167,446.833 196.5,456.5C 203.75,463.873 212.084,465.373 221.5,461C 223.373,459.296 225.04,457.463 226.5,455.5C 231.807,457.784 237.14,460.118 242.5,462.5C 231.795,479.442 216.795,484.609 197.5,478C 195.004,476.92 192.67,475.586 190.5,474C 174.965,458.632 159.632,443.132 144.5,427.5 Z"/></g>
<g><path style="opacity:0.974" fill="#52efdd" d="M 274.5,459.5 C 283.924,464.639 291.924,462.972 298.5,454.5C 304.005,456.749 309.005,459.749 313.5,463.5C 300.221,480.399 283.888,483.899 264.5,474C 258.017,468.351 251.683,462.517 245.5,456.5C 244.491,458.518 243.491,460.518 242.5,462.5C 237.14,460.118 231.807,457.784 226.5,455.5C 230.931,447.418 229.931,440.085 223.5,433.5C 223.56,432.957 223.893,432.624 224.5,432.5C 240.663,441.414 256.663,450.58 272.5,460C 273.437,460.692 274.103,460.525 274.5,459.5 Z"/></g>
<g><path style="opacity:0.963" fill="#4ee3e0" d="M 288.5,424.5 C 309.806,436.488 331.139,448.488 352.5,460.5C 340.017,464.583 328.517,462.583 318,454.5C 316.502,457.495 315.002,460.495 313.5,463.5C 309.005,459.749 304.005,456.749 298.5,454.5C 302.569,447.778 302.402,441.112 298,434.5C 294.629,431.297 291.462,427.964 288.5,424.5 Z"/></g>
</svg>
